# xmcd
#
# Track frame offsets: 
#        150
#        14788
#        29290
#        39733
#        54059
#        66209
#        77848
#        89559
#        100986
#        113959
#        125927
#        137181
#        150660
#        162161
#        172127
#        185624
#        199641
#        212407
#        222162
#        226617
#        238475
#        253282
#        263439
#        274806
#        287478
#        298606
#        309108
#        320158
#
# Disc length: 4477 seconds
#
# Revision: 1
# Processed by: cddbd v1.5.2PL0 Copyright (c) Steve Scherf et al.
# Submitted via: ExactAudioCopy v1.0b4
#
DISCID=a5117b1c
DTITLE=Various Artist - Down Home Blues - Detroit  disc 2
DYEAR=2016
DGENRE=Blues
TTITLE0=John Lee Hooker - Graveyard Blues
TTITLE1=John Lee Hooker -  Love To Boogie
TTITLE2=L C Green - Little School Girl
TTITLE3=L C Green - Remember Way Back
TTITLE4=Eddie Burns - Superstition
TTITLE5=Eddie Burns - Biscuit Baking Woman
TTITLE6=Baby Boy Warren - Forgive Me Darling
TTITLE7=Baby Boy Warren - Please Don't Think I'm Nosey
TTITLE8=Harvey Hill Jr - She Fool Me
TTITLE9=Harvey Hill Jr - Boogie Woogie Woman
TTITLE10=Calvin Frazier - Lilly Mae (Version 2)
TTITLE11=Henry Smith - Dog Me Blues
TTITLE12=Bobo Jenkins - Baby Don't You Want To Go
TTITLE13=Bobo Jenkins - Ten Below Zero
TTITLE14=Baby Boy Warren - I Got Lucky
TTITLE15=Baby Boy Warren - Let's Renew Our Love
TTITLE16=James Walton - Papa Doo
TTITLE17=Earl Chatman - Loving You Baby
TTITLE18=Detroit Count - Parrot Lounge
TTITLE19=Detroit Count - Detroit Boogie
TTITLE20=Bobo Jenkins - Seasick And Waterbound
TTITLE21=Big Jack Reynolds - Pitch A Boogie Woogie
TTITLE22=Calvin Frazier - Lilly Mae (Version 3)
TTITLE23=Baby Boy Warren - Mattie Mae
TTITLE24=Baby Boy Warren - Santa Fe
TTITLE25=Little Sonny - Hastings Street After Hours
TTITLE26=Little Sonny - Love You Pretty Baby
TTITLE27=John Lee Hooker - Have Mercy On Me
EXTD=
EXTT0=
EXTT1=
EXTT2=
EXTT3=
EXTT4=
EXTT5=
EXTT6=
EXTT7=
EXTT8=
EXTT9=
EXTT10=
EXTT11=
EXTT12=
EXTT13=
EXTT14=
EXTT15=
EXTT16=
EXTT17=
EXTT18=
EXTT19=
EXTT20=
EXTT21=
EXTT22=
EXTT23=
EXTT24=
EXTT25=
EXTT26=
EXTT27=
PLAYORDER=
